<svg width="44" height="44" viewBox="0 0 44 44" fill="none" xmlns="http://www.w3.org/2000/svg">
<path d="M34.5398 20.6052H23.7861V9.85149C23.7861 9.37615 23.5973 8.92027 23.2611 8.58415C22.925 8.24803 22.4691 8.0592 21.9938 8.0592C21.5185 8.0592 21.0626 8.24803 20.7265 8.58415C20.3903 8.92027 20.2015 9.37615 20.2015 9.85149V20.6052H9.4478C8.97246 20.6052 8.51659 20.794 8.18047 21.1302C7.84435 21.4663 7.65552 21.9221 7.65552 22.3975C7.65552 22.8728 7.84435 23.3287 8.18047 23.6648C8.51659 24.0009 8.97246 24.1898 9.4478 24.1898H20.2015V34.9435C20.2015 35.4188 20.3903 35.8747 20.7265 36.2108C21.0626 36.547 21.5185 36.7358 21.9938 36.7358C22.4691 36.7358 22.925 36.547 23.2611 36.2108C23.5973 35.8747 23.7861 35.4188 23.7861 34.9435V24.1898H34.5398C35.0152 24.1898 35.471 24.0009 35.8071 23.6648C36.1433 23.3287 36.3321 22.8728 36.3321 22.3975C36.3321 21.9221 36.1433 21.4663 35.8071 21.1302C35.471 20.794 35.0152 20.6052 34.5398 20.6052Z" fill="#231F20"/>
</svg>
