<svg width="44" height="44" viewBox="0 0 44 44" fill="none" xmlns="http://www.w3.org/2000/svg">
<path d="M0.486389 9.12988C0.486389 4.57912 4.1755 0.890015 8.72625 0.890015H35.2614C39.8121 0.890015 43.5013 4.57912 43.5013 9.12988V35.6651C43.5013 40.2157 39.8121 43.9049 35.2614 43.9049H8.72625C4.1755 43.9049 0.486389 40.2157 0.486389 35.6651V9.12988ZM33.834 15.8025C34.4337 15.2026 34.4337 14.2299 33.834 13.6299C33.2339 13.03 32.2612 13.03 31.6611 13.6299L17.3851 27.9061L12.3264 22.8473C11.7264 22.2474 10.7538 22.2474 10.1538 22.8473C9.55386 23.4473 9.55386 24.4201 10.1538 25.0201L16.2988 31.1651C16.8987 31.7649 17.8714 31.7649 18.4714 31.1651L33.834 15.8025Z" fill="#212121"/>
</svg>
