<svg width="32" height="32" viewBox="0 0 32 32" fill="none" xmlns="http://www.w3.org/2000/svg">
<path d="M26.96 27.9999C26.6554 28.0087 26.357 27.913 26.1144 27.7286C25.8718 27.5443 25.6996 27.2824 25.6266 26.9865C25.0263 24.6078 23.7043 22.4734 21.8421 20.8762C19.98 19.279 17.669 18.2976 15.2266 18.0665V19.5599C15.2264 20.0269 15.0884 20.4835 14.8299 20.8725C14.5714 21.2614 14.2038 21.5655 13.7733 21.7465C13.3065 21.9611 12.7875 22.0363 12.279 21.963C11.7704 21.8896 11.2939 21.6709 10.9066 21.3332L4.15998 15.4532C3.90127 15.2329 3.69349 14.959 3.551 14.6505C3.40851 14.3421 3.33472 14.0063 3.33472 13.6665C3.33472 13.3267 3.40851 12.991 3.551 12.6825C3.69349 12.374 3.90127 12.1002 4.15998 11.8799L10.9066 5.98652C11.299 5.64294 11.7834 5.42192 12.3 5.35083C12.8166 5.27973 13.3428 5.36168 13.8133 5.58652C14.2438 5.76757 14.6114 6.07161 14.8699 6.46058C15.1284 6.84955 15.2664 7.30614 15.2666 7.77319V9.33319C18.8883 9.6132 22.2734 11.2405 24.7541 13.8939C27.2347 16.5474 28.6308 20.0343 28.6666 23.6665C28.6648 24.7859 28.526 25.9009 28.2533 26.9865C28.1803 27.2824 28.0082 27.5443 27.7656 27.7286C27.523 27.913 27.2246 28.0087 26.92 27.9999H26.96Z" fill="white"/>
</svg>
