<svg width="29" height="29" viewBox="0 0 29 29" fill="none" xmlns="http://www.w3.org/2000/svg">
<path d="M14.5 0C6.49187 0 0 6.49187 0 14.5C0 22.5081 6.49187 29 14.5 29C22.5081 29 29 22.5081 29 14.5C29 6.49187 22.5081 0 14.5 0ZM16.3102 8.45841C16.3102 9.45813 15.4998 10.2686 14.5 10.2686C13.5003 10.2686 12.6899 9.45813 12.6899 8.45841C12.6899 7.45868 13.5003 6.64825 14.5 6.64825C15.4998 6.64825 16.3102 7.45868 16.3102 8.45841ZM14.5 12.0833C15.1673 12.0833 15.7083 12.6243 15.7083 13.2917V20.5417C15.7083 21.2089 15.1673 21.75 14.5 21.75C13.8327 21.75 13.2917 21.2089 13.2917 20.5417V13.2917C13.2917 12.6243 13.8327 12.0833 14.5 12.0833Z" fill="#891717"/>
</svg>
