<svg width="35" height="35" viewBox="0 0 35 35" fill="none" xmlns="http://www.w3.org/2000/svg">
<path d="M19.5038 0.735276C18.3794 -0.245092 16.6206 -0.245092 15.4962 0.735276L1.36932 13.053C0.49525 13.8151 0 14.8755 0 15.9848V30.9652C0 33.1935 1.95875 35 4.375 35H8.75C11.1663 35 13.125 33.1935 13.125 30.9652V24.2406C13.125 23.4979 13.7779 22.8958 14.5833 22.8958H20.4167C21.2221 22.8958 21.875 23.4979 21.875 24.2406V30.9652C21.875 33.1935 23.8338 35 26.25 35H30.625C33.0412 35 35 33.1935 35 30.9652V15.9848C35 14.8755 34.5048 13.8151 33.6306 13.053L19.5038 0.735276Z" fill="white"/>
</svg>
