<svg width="46" height="35" viewBox="0 0 46 35" fill="none" xmlns="http://www.w3.org/2000/svg">
<path d="M2.45203 0.0116696C1.68939 0.133692 1.00646 0.553673 0.553481 1.17922C0.100497 1.80477 -0.0854356 2.58465 0.0365865 3.34728C0.158609 4.10992 0.57859 4.79285 1.20414 5.24583C1.82969 5.69882 2.60956 5.88475 3.3722 5.76273H11.9988L12.5164 7.20049L14.8743 14.3893L17.2323 21.5781C17.4623 22.3258 18.44 23.0159 19.1876 23.0159H39.3163C40.1215 23.0159 41.0416 22.3258 41.2717 21.5781L45.93 7.20049C46.1601 6.45286 45.815 5.76273 45.0099 5.76273H19.4752L17.2898 1.62197C17.057 1.14669 16.6976 0.744875 16.2511 0.460756C15.8046 0.176636 15.2884 0.0212365 14.7593 0.0116696L3.25718 0.0116696C3.085 -0.00388986 2.91177 -0.00388986 2.73958 0.0116696C2.62467 0.00476208 2.50944 0.00476208 2.39452 0.0116696L2.45203 0.0116696ZM20.6254 28.767C19.0151 28.767 17.7498 30.0322 17.7498 31.6425C17.7498 33.2528 19.0151 34.518 20.6254 34.518C22.2357 34.518 23.5009 33.2528 23.5009 31.6425C23.5009 30.0322 22.2357 28.767 20.6254 28.767ZM37.8786 28.767C36.2683 28.767 35.003 30.0322 35.003 31.6425C35.003 33.2528 36.2683 34.518 37.8786 34.518C39.4889 34.518 40.7541 33.2528 40.7541 31.6425C40.7541 30.0322 39.4889 28.767 37.8786 28.767Z" fill="white"/>
</svg>
